<?xml version="1.0" standalone="no"?>
<!DOCTYPE svg PUBLIC "-//W3C//DTD SVG 20010904//EN"
 "http://www.w3.org/TR/2001/REC-SVG-20010904/DTD/svg10.dtd">
<svg version="1.0" xmlns="http://www.w3.org/2000/svg"
 width="640.000000pt" height="640.000000pt" viewBox="0 0 640.000000 640.000000"
 preserveAspectRatio="xMidYMid meet">

<g transform="translate(0.000000,640.000000) scale(0.100000,-0.100000)"
fill="#000000" stroke="none">
<path d="M0 3200 l0 -3200 3200 0 3200 0 0 3200 0 3200 -3200 0 -3200 0 0
-3200z m2439 2440 c48 -24 87 -70 101 -118 15 -56 14 -58 -47 -71 -73 -14 -73
-14 -73 9 0 36 -29 80 -53 82 -73 5 -97 -13 -97 -72 0 -48 27 -82 136 -173
118 -97 157 -158 158 -242 1 -131 -82 -205 -228 -205 -65 0 -146 30 -178 66
-42 48 -63 146 -33 158 8 3 37 8 64 12 l48 6 7 -35 c10 -54 35 -78 86 -84 56
-6 90 20 90 70 0 44 -27 85 -95 143 -174 149 -197 181 -197 284 0 63 16 101
59 142 39 37 68 47 146 47 49 1 79 -5 106 -19z m681 -386 l0 -394 -70 0 -70 0
0 165 0 165 -95 0 -96 0 3 -165 3 -165 -67 0 -68 0 0 395 0 395 65 0 65 0 0
-165 0 -165 95 0 95 0 0 168 0 167 70 -3 70 -4 0 -394z m412 392 c51 -22 97
-74 113 -130 22 -74 20 -84 -17 -90 -111 -17 -104 -19 -106 27 -4 77 -78 111
-134 60 -16 -15 -18 -37 -18 -253 0 -267 2 -275 70 -286 49 -8 79 18 87 75 l6
43 45 -6 c25 -3 53 -6 63 -6 46 0 9 -133 -49 -182 -46 -38 -95 -51 -173 -46
-86 7 -137 37 -168 101 -21 44 -22 56 -19 314 l3 268 28 42 c39 56 95 83 173
83 34 0 77 -6 96 -14z m-2388 -48 c8 -29 36 -129 61 -223 46 -167 64 -218 65
-185 0 8 28 115 62 238 l61 222 79 0 78 0 0 -395 0 -395 -60 0 -60 0 -1 263 0
262 -44 -160 c-24 -88 -51 -184 -60 -212 l-16 -53 -49 0 c-48 0 -49 1 -60 38
-6 20 -32 118 -60 217 l-49 180 0 -267 -1 -268 -65 0 -65 0 0 395 0 395 84 0
85 0 15 -52z m888 -13 l-4 -65 -109 0 -109 0 0 -100 0 -100 95 0 95 0 0 -60 0
-60 -95 0 -95 0 0 -105 0 -105 120 0 120 0 0 -65 0 -65 -190 0 -190 0 0 395 0
395 183 0 182 0 -3 -65z m1868 -100 l0 -165 90 0 90 0 0 165 0 165 76 0 c65 0
75 -2 70 -16 -3 -9 -6 -186 -6 -395 l0 -379 -70 0 -70 0 0 165 0 165 -90 0
-90 0 0 -165 0 -165 -70 0 -70 0 0 395 0 395 70 0 70 0 0 -165z m590 -230 l0
-395 -70 0 -70 0 0 395 0 395 70 0 70 0 0 -395z m260 65 l0 -330 110 0 110 0
0 -65 0 -65 -180 0 -180 0 0 395 0 395 70 0 70 0 0 -330z m658 268 c-2 -41 -7
-63 -15 -64 -7 -1 -56 -2 -108 -3 l-95 -1 0 -100 0 -100 95 0 95 0 0 -60 0
-60 -95 0 -95 0 0 -105 0 -105 115 0 115 0 0 -65 0 -65 -185 0 -185 0 0 395 0
395 180 0 181 0 -3 -62z m-2925 -1160 c32 -17 46 -39 47 -74 0 -23 6 -34 25
-42 14 -7 91 -50 171 -97 141 -83 147 -85 179 -74 28 11 37 10 60 -5 38 -25
51 -58 35 -95 -7 -17 -21 -33 -31 -36 -18 -6 -19 -19 -19 -205 l0 -198 30 -30
c37 -37 39 -74 5 -107 -25 -26 -63 -32 -95 -15 -14 8 -44 -5 -147 -65 -221
-128 -213 -123 -213 -148 0 -38 -35 -67 -80 -67 -43 0 -70 26 -70 66 0 32
-336 231 -362 215 -29 -18 -67 -12 -93 14 -34 33 -32 70 5 107 l30 30 0 197 0
198 -25 11 c-78 36 -13 164 68 134 26 -10 41 -4 200 88 164 94 172 100 175
132 4 37 17 56 47 68 28 12 33 12 58 -2z m1672 -1135 c3 -21 9 -57 14 -79 6
-32 4 -50 -9 -77 -24 -50 -43 -132 -35 -156 4 -13 -2 -26 -17 -41 -21 -19 -23
-30 -23 -119 0 -79 -4 -101 -18 -115 -9 -10 -19 -27 -22 -39 -20 -94 -26 -142
-24 -187 2 -36 -2 -54 -12 -61 -12 -7 -12 -9 1 -9 12 0 12 -2 2 -9 -22 -13
-28 -125 -9 -154 15 -24 17 -50 4 -63 -3 -4 -3 -12 0 -18 13 -20 11 -36 -3
-36 -8 0 -14 5 -14 11 0 8 -4 8 -13 1 -8 -7 -18 -7 -27 -2 -8 5 -18 6 -22 3
-11 -6 -38 15 -38 30 0 6 3 7 7 4 3 -4 14 5 23 21 16 24 16 29 2 44 -13 15
-12 22 7 58 11 22 16 40 11 40 -6 0 -10 8 -10 18 0 14 2 15 10 2 7 -11 8 -6 4
17 -5 25 -3 34 10 39 23 9 8 26 -16 18 -14 -4 -18 -2 -14 5 4 6 0 11 -9 11 -9
0 -13 -5 -10 -10 3 -6 0 -12 -7 -15 -8 -3 -15 -15 -16 -28 -3 -38 -40 -132
-51 -131 -6 1 -15 2 -20 3 -4 0 -2 24 5 53 8 29 14 65 14 80 0 30 9 35 29 15
10 -10 11 -6 7 18 -3 17 -11 34 -19 39 -10 7 -11 21 -1 77 6 38 17 75 23 82 8
10 8 45 0 127 -9 100 -9 114 5 122 9 5 16 16 16 23 0 8 12 39 27 67 49 96 52
105 68 164 8 32 19 62 25 68 5 5 10 27 10 48 0 21 4 38 9 38 5 0 11 9 14 20 4
17 14 20 56 20 l50 0 6 -37z m977 -563 c23 -23 29 -37 26 -62 -3 -30 1 -34
101 -95 78 -48 109 -62 125 -56 37 12 49 12 77 -2 47 -25 54 -90 13 -132 -20
-20 -31 -24 -57 -18 -62 12 -73 9 -168 -50 -89 -56 -96 -62 -94 -90 2 -26 14
-38 101 -92 60 -39 105 -60 114 -57 57 25 100 12 125 -36 13 -26 14 -34 1 -63
-18 -43 -65 -65 -103 -48 -24 11 -33 7 -102 -35 -42 -26 -88 -54 -103 -63 -21
-12 -28 -24 -28 -46 0 -64 -60 -104 -117 -80 -37 16 -57 48 -50 81 4 21 -9 32
-101 89 -98 61 -107 65 -134 54 -22 -9 -35 -9 -58 1 -37 15 -50 37 -50 84 0
28 7 40 30 58 l30 22 0 129 0 129 -30 28 c-30 28 -38 66 -24 105 11 27 62 44
98 34 28 -8 42 -2 136 54 102 63 104 65 106 102 1 28 8 45 28 62 37 31 71 29
108 -7z m-496 -1519 c1 -37 -1 -41 -11 -27 -15 20 -25 21 -25 1 0 -8 -4 -15
-10 -15 -5 0 -10 21 -10 46 0 44 1 45 28 42 25 -3 27 -7 28 -47z m62 42 c-10
-2 -18 -11 -18 -19 0 -8 8 -15 18 -15 16 -1 16 -2 0 -6 -26 -6 -22 -31 5 -36
16 -3 13 -5 -10 -6 -33 -1 -33 0 -33 44 0 43 1 45 28 44 16 -1 20 -3 10 -6z
m88 -4 c4 -8 0 -9 -15 -4 -27 8 -27 -9 1 -27 14 -9 19 -20 15 -31 -7 -19 -42
-23 -53 -6 -4 7 0 9 14 5 30 -10 37 12 8 24 -25 9 -34 29 -19 43 10 11 41 8
49 -4z m74 2 c0 -5 -7 -8 -16 -7 -9 0 -19 -5 -21 -11 -3 -8 5 -14 19 -14 l23
-2 -22 -4 c-13 -2 -23 -11 -23 -18 0 -7 10 -16 23 -18 19 -4 18 -4 -5 -6 -27
-1 -28 1 -28 44 0 41 2 45 25 45 14 0 25 -4 25 -9z m70 -1 c0 -5 -4 -10 -10
-10 -5 0 -10 -16 -10 -35 0 -19 -4 -35 -9 -35 -4 0 -6 11 -4 24 3 13 0 33 -6
45 -11 19 -9 21 14 21 14 0 25 -4 25 -10z m363 -27 c8 -44 3 -53 -29 -53 -22
0 -24 4 -24 45 0 41 2 45 24 45 19 0 24 -6 29 -37z m82 -8 c0 -43 -22 -58 -50
-35 -32 27 -10 84 30 78 16 -2 20 -11 20 -43z m81 21 c10 -40 1 -61 -25 -61
-33 0 -48 27 -33 59 15 34 49 35 58 2z m60 8 c-3 -9 -6 -29 -6 -45 0 -16 -4
-29 -10 -29 -5 0 -10 16 -10 35 0 19 -4 35 -10 35 -5 0 -10 5 -10 10 0 6 12
10 26 10 20 0 25 -4 20 -16z"/>
<path d="M2225 4199 c-225 -130 -225 -118 -5 -246 91 -53 168 -97 171 -99 3
-2 14 2 23 9 15 11 17 36 17 217 1 189 0 204 -18 211 -13 4 -68 -23 -188 -92z"/>
<path d="M2487 4289 c-15 -9 -17 -31 -17 -212 0 -187 1 -203 19 -214 16 -10
44 3 191 87 207 117 212 125 117 180 -33 19 -83 49 -111 65 -142 85 -181 103
-199 94z"/>
<path d="M2013 4003 c-10 -3 -13 -55 -13 -208 0 -184 2 -205 18 -214 13 -7 56
13 187 89 222 128 221 120 38 225 -76 43 -150 87 -165 97 -26 18 -42 21 -65
11z"/>
<path d="M2695 3916 c-216 -124 -217 -115 9 -247 135 -78 174 -96 188 -88 16
9 18 27 18 213 0 213 -1 218 -43 215 -7 0 -84 -42 -172 -93z"/>
<path d="M2225 3639 c-136 -78 -171 -102 -173 -121 -3 -20 17 -35 165 -122
139 -81 172 -96 191 -89 l24 8 -1 205 c0 187 -2 205 -18 211 -12 4 -72 -24
-188 -92z"/>
<path d="M2488 3726 c-16 -12 -18 -34 -18 -208 0 -264 -13 -257 215 -125 133
77 171 104 173 121 1 18 -27 38 -170 121 -95 55 -175 101 -178 102 -3 1 -13
-4 -22 -11z"/>
<path d="M3940 2470 c0 -5 5 -10 10 -10 6 0 10 5 10 10 0 6 -4 10 -10 10 -5 0
-10 -4 -10 -10z"/>
<path d="M4909 2542 c-98 -62 -106 -69 -104 -96 2 -25 16 -37 108 -93 93 -58
107 -64 127 -53 18 10 31 10 60 0 37 -12 40 -11 108 33 39 25 85 53 101 61 22
12 31 24 33 48 3 32 -1 35 -102 99 -78 50 -109 64 -122 58 -23 -12 -75 -11
-83 1 -9 15 -12 14 -126 -58z"/>
<path d="M4763 2374 c-10 -4 -13 -43 -13 -144 0 -131 1 -140 21 -150 17 -10
35 -2 122 50 94 57 102 65 103 94 0 29 -7 36 -94 90 -96 60 -117 69 -139 60z"/>
<path d="M4911 2097 c-92 -55 -104 -66 -106 -92 -2 -28 6 -35 103 -96 101 -63
106 -65 133 -52 27 14 74 9 84 -8 3 -4 52 20 108 55 94 58 102 65 105 97 3 33
0 36 -98 97 -82 51 -104 61 -120 52 -24 -13 -83 -13 -96 0 -6 6 -46 -12 -113
-53z"/>
<path d="M4600 1230 c0 -13 5 -18 15 -14 8 4 15 10 15 14 0 4 -7 10 -15 14
-10 4 -15 -1 -15 -14z"/>
<path d="M5250 1235 c0 -16 16 -20 24 -6 3 5 -1 11 -9 15 -9 3 -15 0 -15 -9z"/>
<path d="M5250 1195 c0 -8 7 -15 15 -15 8 0 15 7 15 15 0 8 -7 15 -15 15 -8 0
-15 -7 -15 -15z"/>
<path d="M5334 1236 c-8 -21 -1 -49 14 -54 8 -2 12 8 12 32 0 36 -16 49 -26
22z"/>
<path d="M5414 1236 c-8 -21 -1 -49 14 -54 8 -2 12 8 12 32 0 36 -16 49 -26
22z"/>
</g>
</svg>
